<svg xmlns="http://www.w3.org/2000/svg" xml:space="preserve" width="655.359" height="655.359" style="shape-rendering:geometricPrecision;text-rendering:geometricPrecision;image-rendering:optimizeQuality;fill-rule:evenodd;clip-rule:evenodd" viewBox="0 0 6.827 6.827"><defs><clipPath id="id0"><path d="M3.413 0a3.413 3.413 0 1 1 0 6.827 3.413 3.413 0 0 1 0-6.827z"/></clipPath><style>.str0{stroke:#212121;stroke-width:.00333465}.fil15{fill:#33691e}.fil3{fill:#3e2723}.fil17{fill:#4b772d}.fil16{fill:#558b2f}.fil11{fill:#689f38}.fil1{fill:#7e57c2}.fil12{fill:#8bc34a}.fil4{fill:#d50000}</style></defs><g id="Layer_x0020_1"><path d="M3.413 0a3.413 3.413 0 1 1 0 6.827 3.413 3.413 0 0 1 0-6.827z" style="fill:#9575cd"/><g style="clip-path:url(#id0)"><g id="_457168256"><path id="_4546131041" class="fil1" d="M5.248 2.874 9.034 6.66h-.42L4.828 2.874z"/><path id="_454612984" class="fil1" d="M4.828 2.874 8.614 6.66v.663L4.828 3.537z"/><path id="_454614280" class="fil1" d="m4.902 3.537 3.786 3.786v.155L4.902 3.69z"/><path id="_454614016" class="fil1" d="m4.902 3.691 3.786 3.787h-.036L4.866 3.69z"/><path id="_454614088" class="fil1" d="m4.866 3.691 3.786 3.787v.59L4.866 4.283z"/><path id="_454614184" class="fil1" d="M4.902 4.282 8.688 8.07v.154L4.902 4.437z"/><path id="_454614472" class="fil1" d="m4.902 4.437 3.786 3.786h-.036L4.866 4.437z"/><path id="_454614952" class="fil1" d="m4.866 4.437 3.786 3.786h-.038L4.828 4.437z"/><path id="_454614784" class="fil1" d="m4.828 4.437 3.786 3.786v.503L4.828 4.94z"/><path id="_454615048" class="fil1" d="m5.008 4.988 3.786 3.787.003.003.004.004.003.004.003.004.003.004.003.004.003.004-3.787-3.786-.002-.004-.003-.004-.003-.004L5.018 5l-.004-.004-.003-.004z"/><path id="_454615168" class="fil1" d="M5.244 5.052 9.03 8.84l.008.009.007.01.006.01.005.01.005.011.003.012.002.013v.136L5.28 5.264v-.137l-.003-.012-.003-.012-.004-.011-.005-.011-.006-.01-.007-.01z"/><path id="_454614760" class="fil1" d="M5.28 5.264 9.066 9.05h-.31L4.97 5.264z"/><path id="_454614880" class="fil1" d="M4.97 5.264 8.756 9.05h-.087L4.882 5.264z"/><path id="_454614592" class="fil1" d="M4.882 5.264 8.67 9.05h-.072L4.81 5.264z"/><path id="_454614520" class="fil1" d="M4.81 5.264 8.598 9.05H8.41L4.625 5.264z"/><path id="_454614928" class="fil1" d="M4.625 5.264 8.41 9.05h-.067L4.558 5.264z"/><path id="_454614664" class="fil1" d="M1.966 2.874 5.753 6.66h-.42L1.547 2.874z"/><path id="_454615336" class="fil1" d="m1.966 4.437 3.787 3.786h-.038L1.93 4.437z"/><path id="_454615528" class="fil1" d="M2.644 5.264 6.43 9.05h-.15L2.495 5.264z"/><path id="_454615888" class="fil1" d="M2.494 5.264 6.281 9.05h-.134L2.361 5.264z"/><path id="_454615576" class="fil1" d="M2.361 5.264 6.147 9.05h-.225L2.135 5.264z"/><path id="_454615672" class="fil1" d="M2.135 5.264 5.922 9.05H5.92L2.135 5.264z"/><path id="_454615816" class="fil1" d="M2.135 5.264 5.92 9.05h-.244L1.891 5.264z"/><path id="_454615600" class="fil1" d="M1.891 5.264 5.677 9.05h-.226L1.665 5.264z"/><path id="_454615768" class="fil1" d="m1.929 4.437 3.786 3.786H5.68L1.893 4.437z"/><path id="_454615960" class="fil1" d="m1.929 3.691 3.786 3.787H5.68L1.893 3.69z"/><path id="_454615432" class="fil1" d="M3.59 5.264 7.377 9.05H6.43L2.644 5.264z"/><path id="_454615624" class="fil1" d="M4.558 5.264 8.344 9.05h-.967L3.59 5.264z"/><path id="_457168016" class="fil1" d="m3.413 1.564 1.835 1.31h-.42v.663h.074v.154h-.036v.591h.036v.155h-.074v.503h.064c.058 0 .109.03.137.076h.127c.068 0 .124.056.124.124v.124H1.665V5.14c0-.068.056-.124.124-.124h.115a.164.164 0 0 1 .062-.058v-.521h-.073v-.155h.036v-.59h-.036v-.155h.073v-.663h-.42l1.866-1.311h.001z"/></g></g><path d="M3.413 0a3.413 3.413 0 1 1 0 6.827 3.413 3.413 0 0 1 0-6.827z" style="fill:none"/><path class="fil3 str0" d="M1.929 3.659h.045v.778h-.045z"/><path class="fil4" d="M1.893 4.282h.082v.155h-.082zM1.893 3.537h.082v.155h-.082z"/><path class="fil3 str0" d="M4.82 3.659h.045v.778H4.82z"/><path class="fil4" d="M4.82 4.282h.082v.155H4.82zM4.82 3.537h.082v.155H4.82z"/><path style="fill:#cabca9;fill-rule:nonzero" d="M4.828 5.119v.075h-.301V3.537H3.62V5.194H1.966V2.856h2.862z"/><path style="fill:#8bc34a;fill-rule:nonzero" d="m1.547 2.874 1.865-1.311 1.836 1.31z"/><path style="fill:#7cb342;fill-rule:nonzero" d="m1.547 2.874 1.865-1.311h.001v1.31z"/><path style="fill:#a8977e" d="M3.621 3.612V5.194h.906V3.537H3.62z"/><path d="M3.645 3.588v1.559h.858V3.537H3.645v.051zm-.047 1.507V3.49h.952v1.704H3.598v-.099z" style="fill:#391f0b;fill-rule:nonzero"/><path style="fill:#616161" d="M2.135 5.14h2.747v.124H2.135z"/><path class="fil11" d="M2.011 5.016H1.79a.124.124 0 0 0-.124.124v.124h.47V5.14a.124.124 0 0 0-.124-.124zM2.57 5.115h-.134a.075.075 0 0 0-.075.074v.075h.283v-.075a.075.075 0 0 0-.074-.074z"/><path class="fil12" d="M2.332 4.94h-.29a.163.163 0 0 0-.163.162v.15c0 .007.006.012.012.012h.603v-.162a.163.163 0 0 0-.162-.162z"/><path class="fil11" d="M4.787 4.94h.105c.09 0 .162.073.162.162v.078a.085.085 0 0 1-.084.084h-.345v-.162c0-.09.073-.162.162-.162z"/><path class="fil12" d="M4.934 5.016h.222c.068 0 .124.056.124.124v.124h-.47V5.14c0-.068.056-.124.124-.124z"/><path style="fill:#757575" d="M3.59 5.194h.967v.07H3.59z"/><path d="M3.799 4.261a.077.077 0 1 1 0 .155.077.077 0 0 1 0-.155z" style="fill:#263238"/><path class="fil15" d="M3.42 3.793c-.133.084-.211.226-.296.302-.537.48-.793-.642.295-.302z"/><path class="fil16" d="M2.606 4.206c.111-.123.205-.257.393-.323.076-.027.092-.039.175-.049.033 0 .047.004.08.01-.027.001-.008.001-.04-.001-.077-.007-.14.027-.21.053-.195.075-.274.216-.397.35l-.001-.04z"/><path class="fil16" d="M2.941 3.908h.04c.068.004.084 0 .152.02.026.01.036.017.059.032-.021-.007-.007-.001-.03-.013-.058-.03-.119-.025-.182-.026h-.04a.018.018 0 0 0 .001-.013zM2.807 3.991h.002c.081.005.1 0 .18.023.032.012.043.021.07.04-.025-.01-.008-.003-.036-.017-.068-.035-.14-.029-.214-.03h-.002a.022.022 0 0 0 0-.016zM3.022 3.888a.273.273 0 0 0 .016-.02c.025-.036.035-.043.046-.08.002-.015-.001-.021-.005-.035-.002.012-.001.004 0 .018.003.033-.028.063-.052.095a.294.294 0 0 1-.018.02c.005 0 .01 0 .013.002zM2.85 3.974v-.002c.036-.05.05-.06.069-.114.004-.022.002-.03 0-.051-.005.017-.003.005-.004.025-.002.05-.043.092-.077.137v.001c.004 0 .009.002.012.004z"/><path class="fil15" d="M2.26 3.966c.065.04.103.11.144.146.26.234.386-.312-.143-.146z"/><path class="fil17" d="M2.656 4.166c-.054-.06-.1-.125-.191-.157-.037-.013-.045-.019-.085-.023-.016 0-.023.001-.039.004h.02c.037-.004.068.013.101.026.095.036.133.104.194.17v-.02z"/><path class="fil17" d="M2.493 4.021a.25.25 0 0 0-.02 0c-.032.002-.04 0-.073.01-.013.005-.018.009-.029.016.01-.004.003 0 .015-.007.028-.014.057-.012.088-.012h.02a.009.009 0 0 1-.001-.007zM2.558 4.062c-.04.002-.05 0-.089.01-.015.007-.02.011-.033.02l.017-.008c.033-.017.068-.014.104-.015h.001a.01.01 0 0 1 0-.007zM2.454 4.011a.133.133 0 0 1-.008-.01c-.012-.016-.017-.02-.023-.038 0-.007.001-.01.003-.017v.009c-.001.016.013.03.026.046a.142.142 0 0 0 .008.01h-.006zM2.537 4.053c-.017-.024-.024-.03-.033-.056-.002-.01-.001-.015 0-.025l.002.013c0 .024.02.044.037.066l-.006.002z"/><path class="fil15" d="M2.226 3.49h1.229v.056H2.226zM2.226 4.381h1.229v.056H2.226z"/></g></svg>